<?xml version="1.0" encoding="utf-8" ?>
<svg xmlns="http://www.w3.org/2000/svg" xmlns:xlink="http://www.w3.org/1999/xlink" width="1024" height="1024">
    <style>
            .ant { fill: #000000; }
            .bg { fill: #FFFFFF; }
    </style>
    <rect class="bg" width="1024" height="1024"/>
	<path class="ant" transform="scale(2 2)" d="M231.249 107.529C217.879 89.0531 200.735 77.2183 177.697 73.3494C170.48 72.1375 162.115 74.9307 158.734 68.3787C154.025 59.251 155.262 51.3242 158.245 41.8988C161.69 42.3139 164.661 43.3125 167.827 44.7142C165.131 50.3919 164.907 56.6643 166.736 62.5945C195.865 62.5465 226.397 78.8646 240.965 104.27C250.681 101.143 261.802 101.683 271.563 104.27C285.061 76.1285 316.823 65.3833 345.231 60.591C346.688 55.1706 345.503 49.8657 343.667 44.7142C346.822 43.5386 349.983 42.6132 353.274 41.8988C355.785 49.1509 358.688 58.7855 354.193 65.749C347.557 76.0306 306.552 68.6094 281.356 107.529C288.572 111.808 295.01 116.517 299.853 123.503C313.554 143.266 310.362 171.633 291.017 186.526C286.152 190.271 280.658 193.381 275.592 196.875C276.011 199.889 276.504 202.848 276.66 205.894C289.211 210.339 301.027 220.018 301.287 234.275C306.74 232.746 312.156 230.665 317.542 228.881C321.49 223.059 324.907 216.802 328.523 210.769L346.434 181.214C360.373 158.245 353.839 161.824 381.723 168.884L424.109 179.904C422.682 183.084 421.984 186.238 421.265 189.627C401.518 184.991 381.901 179.661 362.225 174.717C355.229 189.896 341.152 209.04 332.467 224.271C338.312 222.646 358.29 213.612 362.307 217.94C364.633 220.446 371.512 238.712 373.493 243.368L384.703 269.294C387.816 276.632 395.774 280.888 401.837 285.674L424.109 303.473C422.036 306.156 419.57 308.64 417.352 311.219C414.413 309.088 411.656 306.656 408.816 304.391L389.877 289.076C374.635 276.531 378.564 281.064 370.591 262.353C366.561 252.894 358.222 236.625 356.234 227.247C352.147 228.371 348.117 229.814 344.084 231.123L323.397 237.845C316.061 240.309 308.758 242.924 301.287 244.955C301.325 262.777 304.157 276.514 286.76 287.369C287.366 299.819 287.156 310.322 279.766 321.082C282.479 327.434 283.065 334.084 284.447 340.76C323.722 342.296 354.759 385.567 346.164 423.749C344.911 429.317 340.6 433.631 340.505 439.469C340.299 452.178 351.215 456.696 362.225 456.847L362.225 466.855C341.283 468.414 323.502 450.134 332.217 430.095C333.423 427.321 335.161 424.768 336.047 421.861C339.925 409.134 335.548 392.362 329.596 381.125C321.249 366.047 301.832 351.198 284.447 351.242C284.577 368.471 278.534 386.432 267.445 399.654C263.054 404.889 257.589 412.157 250.894 406.3C235.071 392.457 228.831 371.529 227.427 351.242C195.897 355.645 172.668 380.109 174.357 412.768C174.654 418.529 175.397 422.252 178.305 427.199C190.795 448.452 173.072 467.201 149.784 466.855L149.784 456.847C159.543 456.505 169.151 454.339 171.484 442.963C173.211 434.543 166.285 429.972 165.002 421.956C158.234 379.68 186.278 347.336 227.427 340.76C228.715 334.051 229.789 327.587 231.985 321.082C223.975 307.011 226.09 302.352 225.535 287.369C213.785 279.625 210.786 271.111 210.777 257.047L210.787 244.955C207.089 243.478 203.314 242.35 199.536 241.109L178.205 234.21C171.022 231.893 163.638 228.765 156.266 227.247C153.528 233.915 135.457 277.21 132.703 280.271C129.951 283.329 126.035 285.812 122.806 288.394L107.5 300.704C103.147 304.147 98.6347 307.474 94.5374 311.219C92.6101 308.452 90.2735 305.987 88.0361 303.473C90.9849 300.73 94.2097 298.274 97.351 295.759L115.372 281.509C127.181 272.038 125.236 273.605 131.207 259.767L142.615 233.807C145.335 227.472 147.704 214.374 155.894 216.043C161.758 217.238 174.229 221.915 179.63 224.271C178.251 221.055 176.278 218.226 174.431 215.27L168.122 205.001C161.992 194.935 156.206 184.593 149.784 174.717C144.356 175.135 134.755 178.195 129.106 179.638L89.9496 189.627L87.1861 179.904C107.333 173.527 134.207 167.357 154.739 162.837C156.544 167.261 161.728 174.51 164.351 178.924C174.27 195.614 184.871 211.942 194.356 228.881C199.886 230.656 205.411 231.998 210.787 234.275C211.205 220.066 222.088 209.625 235.444 205.894C235.779 202.865 236.315 199.875 236.835 196.875C225.887 189.595 215.742 185.384 209.163 173.179C195.797 148.382 207.171 120.26 231.249 107.529ZM252.278 112.53C217.885 113.885 201.732 155.827 224.178 176.303C231.74 183.201 248.757 194.944 260.053 193.399C265.801 191.407 283.53 180.143 287.947 175.763C315.013 148.923 284.842 106.489 252.278 112.53ZM246.288 202.117C246.231 203.882 246.106 205.677 246.288 207.436C250.69 213.13 259.662 213.316 264.935 208.715C266.464 206.478 266.199 204.686 265.924 202.117C257.768 204.414 254.427 203.737 246.288 202.117ZM239.345 215.23C230.782 218.559 222.208 222.761 221.214 232.765C220.522 239.719 220.368 257.105 221.067 264.334C222.872 283.009 243.086 280.278 256.021 280.258C263.793 280.246 272.155 281.264 279.766 279.326C286.37 275.696 290.484 271.416 291.044 263.811C291.586 256.431 291.819 240.227 291.011 232.93C289.927 223.14 280.653 218.525 272.316 215.23C264.697 222.201 252.081 224.643 243.183 218.353C242.254 217.696 240.336 215.462 239.345 215.23ZM251.357 290.601L235.444 290.601C235.36 306.761 238.856 325.498 260.053 322.102C276.226 317.698 276.71 304.913 276.66 290.601C268.229 290.494 259.79 290.61 251.357 290.601ZM240.965 328.498C231.966 348.311 241.12 381.497 256.215 397.109C259.536 393.619 262.227 389.598 264.935 385.628C274.167 368.687 277.692 349.127 272.105 330.263L271.563 328.498C261.493 333.219 250.758 334.085 240.965 328.498Z"/>
	<path class="ant" transform="scale(2 2)" d="M233.105 164.115Q232.74 164.182 232.372 164.23Q232.005 164.279 231.635 164.31Q231.265 164.34 230.894 164.352Q230.524 164.365 230.153 164.359Q229.782 164.353 229.411 164.329Q229.041 164.305 228.673 164.262Q228.304 164.22 227.938 164.16Q227.572 164.099 227.209 164.021Q226.847 163.943 226.489 163.846Q226.13 163.75 225.777 163.637Q225.424 163.523 225.077 163.393Q224.729 163.262 224.389 163.114Q224.049 162.966 223.716 162.802Q223.384 162.638 223.059 162.458Q222.735 162.277 222.42 162.081Q222.105 161.885 221.8 161.674Q221.496 161.462 221.201 161.236Q220.907 161.01 220.625 160.77Q220.342 160.53 220.071 160.276Q219.801 160.022 219.543 159.755Q219.285 159.488 219.041 159.209Q218.797 158.93 218.567 158.639Q218.336 158.348 218.121 158.046Q217.905 157.745 217.704 157.432Q217.504 157.12 217.319 156.799Q217.134 156.477 216.965 156.147Q216.796 155.817 216.643 155.479Q216.491 155.14 216.355 154.795Q216.219 154.45 216.101 154.098Q215.982 153.747 215.881 153.39Q215.78 153.033 215.696 152.672Q215.613 152.31 215.547 151.945Q215.481 151.58 215.434 151.212Q215.386 150.844 215.357 150.474Q215.327 150.104 215.316 149.734Q215.305 149.363 215.312 148.992Q215.319 148.621 215.344 148.251Q215.369 147.881 215.413 147.512Q215.456 147.144 215.517 146.778Q215.579 146.412 215.658 146.05Q215.737 145.687 215.835 145.329Q215.932 144.971 216.046 144.618Q216.161 144.266 216.292 143.919Q216.424 143.572 216.573 143.232Q216.721 142.892 216.887 142.56Q217.052 142.228 217.233 141.904Q217.414 141.581 217.611 141.266Q217.808 140.952 218.021 140.648Q218.233 140.343 218.46 140.05Q218.687 139.756 218.928 139.474Q219.169 139.192 219.423 138.923Q219.678 138.653 219.946 138.396Q220.213 138.139 220.493 137.895Q220.773 137.652 221.064 137.422Q221.356 137.193 221.658 136.978Q221.961 136.763 222.273 136.564Q222.586 136.364 222.908 136.18Q223.23 135.996 223.561 135.828Q223.892 135.66 224.23 135.508Q224.569 135.357 224.915 135.222Q225.26 135.087 225.612 134.969Q225.964 134.852 226.321 134.752Q226.678 134.652 227.04 134.569Q227.402 134.487 227.767 134.422Q228.131 134.358 228.498 134.311Q228.864 134.265 229.233 134.236Q229.601 134.208 229.971 134.198Q230.34 134.187 230.71 134.195Q231.079 134.203 231.448 134.229Q231.817 134.254 232.184 134.298Q232.551 134.342 232.915 134.404Q233.28 134.466 233.641 134.545Q234.002 134.625 234.358 134.722Q234.715 134.819 235.066 134.934Q235.418 135.048 235.763 135.18Q236.109 135.311 236.447 135.46Q236.786 135.608 237.117 135.773Q237.448 135.937 237.77 136.118Q238.092 136.299 238.406 136.495Q238.719 136.692 239.022 136.903Q239.325 137.115 239.618 137.341Q239.91 137.567 240.191 137.807Q240.472 138.047 240.741 138.3Q241.01 138.554 241.266 138.82Q241.522 139.087 241.765 139.365Q242.008 139.644 242.237 139.934Q242.466 140.224 242.68 140.525Q242.895 140.827 243.094 141.138Q243.294 141.449 243.478 141.77Q243.662 142.09 243.83 142.419Q243.998 142.749 244.149 143.086Q244.301 143.423 244.436 143.767Q244.571 144.111 244.689 144.461Q244.807 144.812 244.908 145.167Q245.008 145.523 245.091 145.883Q245.175 146.243 245.24 146.607Q245.305 146.971 245.353 147.337Q245.4 147.704 245.43 148.072Q245.459 148.441 245.471 148.81Q245.482 149.18 245.476 149.549Q245.469 149.919 245.444 150.288Q245.419 150.656 245.376 151.024Q245.334 151.391 245.273 151.755Q245.212 152.12 245.134 152.481Q245.055 152.842 244.959 153.199Q244.863 153.556 244.749 153.908Q244.636 154.26 244.505 154.606Q244.375 154.951 244.227 155.29Q244.08 155.629 243.916 155.961Q243.752 156.292 243.572 156.615Q243.393 156.938 243.197 157.252Q243.002 157.565 242.791 157.869Q242.581 158.173 242.355 158.466Q242.13 158.759 241.891 159.041Q241.652 159.323 241.399 159.592Q241.146 159.862 240.88 160.119Q240.615 160.376 240.337 160.62Q240.059 160.863 239.769 161.093Q239.48 161.323 239.179 161.538Q238.879 161.753 238.568 161.954Q238.257 162.154 237.937 162.339Q237.617 162.524 237.289 162.693Q236.96 162.862 236.623 163.014Q236.286 163.167 235.943 163.303Q235.599 163.439 235.249 163.558Q234.899 163.677 234.544 163.778Q234.188 163.88 233.829 163.964Q233.469 164.049 233.105 164.115ZM229.571 144.306Q229.451 144.328 229.332 144.356Q229.213 144.383 229.096 144.417Q228.978 144.451 228.863 144.49Q228.747 144.529 228.633 144.574Q228.52 144.619 228.409 144.67Q228.298 144.72 228.189 144.776Q228.08 144.832 227.975 144.893Q227.869 144.955 227.766 145.021Q227.664 145.087 227.565 145.159Q227.466 145.23 227.37 145.306Q227.275 145.382 227.183 145.463Q227.091 145.543 227.004 145.628Q226.916 145.713 226.833 145.803Q226.749 145.892 226.671 145.985Q226.592 146.079 226.518 146.176Q226.443 146.273 226.374 146.373Q226.305 146.474 226.241 146.578Q226.176 146.682 226.117 146.788Q226.058 146.895 226.004 147.005Q225.951 147.115 225.902 147.227Q225.854 147.339 225.811 147.453Q225.769 147.568 225.732 147.684Q225.695 147.801 225.664 147.919Q225.632 148.037 225.607 148.156Q225.581 148.276 225.562 148.396Q225.542 148.517 225.529 148.638Q225.515 148.759 225.508 148.881Q225.5 149.003 225.499 149.125Q225.497 149.247 225.502 149.37Q225.506 149.492 225.516 149.613Q225.527 149.735 225.543 149.856Q225.56 149.977 225.582 150.097Q225.604 150.217 225.633 150.336Q225.661 150.455 225.695 150.572Q225.729 150.689 225.769 150.805Q225.808 150.92 225.854 151.034Q225.899 151.147 225.95 151.258Q226.001 151.369 226.057 151.477Q226.113 151.586 226.175 151.691Q226.236 151.797 226.303 151.899Q226.37 152.001 226.441 152.1Q226.513 152.199 226.589 152.294Q226.666 152.39 226.747 152.481Q226.828 152.572 226.913 152.66Q226.998 152.747 227.088 152.83Q227.178 152.913 227.271 152.991Q227.365 153.07 227.462 153.144Q227.559 153.218 227.66 153.286Q227.761 153.355 227.865 153.419Q227.969 153.483 228.076 153.542Q228.183 153.601 228.293 153.654Q228.403 153.707 228.515 153.755Q228.627 153.803 228.742 153.845Q228.857 153.888 228.973 153.924Q229.089 153.961 229.208 153.992Q229.326 154.023 229.445 154.048Q229.565 154.073 229.685 154.092Q229.806 154.111 229.927 154.124Q230.049 154.137 230.171 154.144Q230.293 154.151 230.415 154.153Q230.537 154.154 230.659 154.149Q230.781 154.144 230.903 154.133Q231.024 154.122 231.145 154.106Q231.266 154.089 231.386 154.066Q231.505 154.043 231.624 154.015Q231.742 153.986 231.858 153.952Q231.975 153.918 232.09 153.878Q232.205 153.838 232.318 153.793Q232.43 153.747 232.541 153.696Q232.651 153.645 232.759 153.589Q232.867 153.533 232.972 153.471Q233.076 153.41 233.178 153.343Q233.28 153.277 233.378 153.205Q233.477 153.134 233.571 153.058Q233.666 152.982 233.757 152.901Q233.848 152.82 233.935 152.735Q234.022 152.65 234.104 152.561Q234.187 152.472 234.265 152.378Q234.343 152.285 234.416 152.188Q234.49 152.091 234.558 151.991Q234.627 151.891 234.691 151.787Q234.754 151.684 234.813 151.577Q234.871 151.47 234.924 151.361Q234.978 151.252 235.025 151.14Q235.073 151.028 235.115 150.914Q235.158 150.8 235.194 150.684Q235.231 150.568 235.262 150.451Q235.293 150.333 235.318 150.214Q235.343 150.095 235.362 149.975Q235.381 149.855 235.395 149.734Q235.408 149.614 235.415 149.492Q235.423 149.371 235.424 149.249Q235.426 149.128 235.421 149.006Q235.417 148.885 235.406 148.764Q235.396 148.642 235.38 148.522Q235.363 148.402 235.341 148.282Q235.319 148.162 235.291 148.044Q235.263 147.926 235.229 147.809Q235.195 147.692 235.156 147.577Q235.116 147.462 235.071 147.349Q235.026 147.236 234.975 147.126Q234.925 147.015 234.869 146.907Q234.813 146.799 234.752 146.694Q234.691 146.589 234.625 146.487Q234.559 146.385 234.488 146.287Q234.416 146.188 234.341 146.093Q234.265 145.998 234.184 145.907Q234.104 145.815 234.019 145.728Q233.934 145.641 233.845 145.558Q233.757 145.475 233.664 145.397Q233.571 145.318 233.474 145.245Q233.378 145.171 233.277 145.102Q233.177 145.033 233.074 144.969Q232.971 144.905 232.864 144.846Q232.758 144.787 232.649 144.734Q232.54 144.68 232.428 144.632Q232.316 144.584 232.202 144.541Q232.089 144.498 231.973 144.461Q231.857 144.424 231.74 144.393Q231.622 144.362 231.503 144.336Q231.384 144.311 231.264 144.291Q231.144 144.271 231.024 144.258Q230.903 144.244 230.781 144.236Q230.66 144.228 230.539 144.226Q230.417 144.224 230.296 144.228Q230.174 144.232 230.053 144.242Q229.932 144.252 229.811 144.268Q229.691 144.284 229.571 144.306Z"/>
	<path class="ant" transform="scale(2 2)" d="M284.596 164.037Q284.233 164.099 283.867 164.143Q283.502 164.188 283.134 164.214Q282.767 164.24 282.398 164.248Q282.03 164.256 281.662 164.246Q281.294 164.236 280.926 164.208Q280.559 164.18 280.194 164.134Q279.828 164.088 279.465 164.024Q279.103 163.96 278.743 163.878Q278.384 163.797 278.029 163.698Q277.675 163.598 277.325 163.482Q276.976 163.365 276.632 163.232Q276.289 163.098 275.953 162.948Q275.616 162.798 275.288 162.631Q274.959 162.465 274.639 162.282Q274.319 162.1 274.009 161.902Q273.698 161.704 273.397 161.491Q273.097 161.278 272.807 161.05Q272.518 160.823 272.239 160.581Q271.961 160.34 271.695 160.085Q271.429 159.83 271.176 159.562Q270.923 159.295 270.683 159.015Q270.443 158.736 270.218 158.444Q269.992 158.153 269.781 157.851Q269.57 157.55 269.374 157.238Q269.177 156.926 268.997 156.605Q268.816 156.284 268.652 155.954Q268.487 155.624 268.339 155.287Q268.191 154.95 268.06 154.606Q267.928 154.262 267.814 153.911Q267.7 153.561 267.603 153.206Q267.506 152.851 267.426 152.491Q267.347 152.131 267.285 151.768Q267.223 151.405 267.18 151.039Q267.136 150.673 267.11 150.306Q267.084 149.938 267.077 149.57Q267.069 149.202 267.079 148.833Q267.09 148.465 267.118 148.098Q267.147 147.731 267.193 147.365Q267.24 147 267.304 146.637Q267.368 146.274 267.45 145.915Q267.532 145.556 267.632 145.201Q267.732 144.847 267.849 144.497Q267.966 144.148 268.1 143.805Q268.234 143.462 268.384 143.126Q268.535 142.789 268.702 142.461Q268.869 142.133 269.052 141.813Q269.234 141.493 269.433 141.183Q269.631 140.872 269.845 140.572Q270.058 140.272 270.286 139.982Q270.514 139.693 270.756 139.415Q270.997 139.137 271.252 138.871Q271.508 138.605 271.776 138.353Q272.043 138.1 272.323 137.86Q272.603 137.621 272.895 137.396Q273.186 137.17 273.488 136.959Q273.79 136.749 274.103 136.553Q274.415 136.357 274.736 136.177Q275.057 135.997 275.387 135.833Q275.717 135.669 276.054 135.521Q276.392 135.373 276.736 135.242Q277.08 135.111 277.431 134.997Q277.781 134.883 278.137 134.787Q278.492 134.69 278.852 134.611Q279.212 134.532 279.575 134.471Q279.938 134.41 280.303 134.367Q280.668 134.323 281.035 134.298Q281.402 134.273 281.77 134.265Q282.138 134.258 282.505 134.269Q282.873 134.279 283.24 134.308Q283.606 134.337 283.971 134.384Q284.336 134.43 284.698 134.495Q285.06 134.559 285.419 134.642Q285.777 134.724 286.131 134.823Q286.486 134.923 286.834 135.04Q287.183 135.157 287.526 135.291Q287.868 135.425 288.204 135.575Q288.539 135.726 288.867 135.893Q289.195 136.059 289.514 136.242Q289.834 136.425 290.144 136.623Q290.454 136.821 290.753 137.034Q291.053 137.247 291.342 137.475Q291.631 137.702 291.909 137.943Q292.186 138.185 292.452 138.44Q292.717 138.694 292.97 138.962Q293.222 139.229 293.461 139.509Q293.7 139.788 293.926 140.079Q294.151 140.37 294.361 140.671Q294.572 140.973 294.767 141.284Q294.963 141.596 295.143 141.917Q295.323 142.238 295.487 142.567Q295.651 142.896 295.799 143.233Q295.947 143.57 296.078 143.913Q296.209 144.257 296.323 144.607Q296.437 144.956 296.534 145.311Q296.631 145.666 296.71 146.025Q296.789 146.384 296.851 146.747Q296.913 147.11 296.956 147.475Q297 147.84 297.026 148.207Q297.052 148.574 297.059 148.942Q297.067 149.309 297.057 149.677Q297.046 150.045 297.018 150.411Q296.99 150.778 296.944 151.143Q296.897 151.508 296.833 151.87Q296.769 152.232 296.687 152.591Q296.605 152.949 296.506 153.304Q296.407 153.658 296.29 154.007Q296.174 154.355 296.04 154.698Q295.907 155.041 295.757 155.377Q295.607 155.713 295.44 156.041Q295.274 156.369 295.092 156.688Q294.909 157.008 294.712 157.318Q294.514 157.628 294.301 157.928Q294.089 158.228 293.861 158.517Q293.634 158.807 293.393 159.084Q293.152 159.362 292.898 159.628Q292.643 159.893 292.376 160.146Q292.109 160.399 291.83 160.639Q291.551 160.878 291.26 161.104Q290.97 161.329 290.668 161.54Q290.367 161.751 290.056 161.947Q289.744 162.143 289.424 162.323Q289.103 162.504 288.775 162.668Q288.445 162.833 288.109 162.981Q287.772 163.129 287.429 163.261Q287.085 163.392 286.736 163.507Q286.386 163.621 286.031 163.718Q285.677 163.816 285.318 163.895Q284.959 163.975 284.596 164.037ZM281.109 144.358Q280.791 144.421 280.484 144.525Q280.177 144.63 279.886 144.774Q279.596 144.917 279.327 145.098Q279.057 145.279 278.814 145.493Q278.571 145.708 278.358 145.953Q278.145 146.197 277.967 146.468Q277.788 146.738 277.646 147.03Q277.504 147.321 277.402 147.629Q277.3 147.937 277.239 148.255Q277.178 148.573 277.159 148.897Q277.141 149.221 277.165 149.544Q277.189 149.867 277.255 150.184Q277.321 150.502 277.429 150.807Q277.536 151.113 277.683 151.402Q277.829 151.691 278.013 151.959Q278.196 152.226 278.413 152.467Q278.63 152.708 278.877 152.918Q279.123 153.129 279.396 153.305Q279.668 153.481 279.961 153.62Q280.254 153.758 280.563 153.857Q280.871 153.957 281.19 154.014Q281.509 154.072 281.833 154.087Q282.157 154.102 282.48 154.075Q282.803 154.048 283.12 153.978Q283.237 153.952 283.353 153.921Q283.468 153.889 283.582 153.852Q283.696 153.815 283.808 153.773Q283.92 153.73 284.03 153.682Q284.14 153.635 284.247 153.581Q284.355 153.528 284.459 153.47Q284.564 153.411 284.666 153.348Q284.767 153.284 284.866 153.216Q284.964 153.148 285.059 153.075Q285.154 153.002 285.246 152.924Q285.337 152.847 285.425 152.765Q285.512 152.683 285.595 152.597Q285.679 152.511 285.758 152.42Q285.837 152.33 285.911 152.237Q285.986 152.143 286.056 152.045Q286.126 151.948 286.191 151.848Q286.256 151.747 286.316 151.643Q286.376 151.54 286.431 151.433Q286.486 151.327 286.536 151.218Q286.586 151.108 286.63 150.997Q286.674 150.886 286.713 150.772Q286.752 150.659 286.785 150.544Q286.819 150.429 286.846 150.312Q286.874 150.196 286.896 150.078Q286.918 149.96 286.934 149.841Q286.95 149.723 286.961 149.603Q286.971 149.484 286.975 149.364Q286.98 149.244 286.979 149.124Q286.977 149.005 286.97 148.885Q286.963 148.765 286.95 148.646Q286.937 148.527 286.918 148.409Q286.9 148.29 286.875 148.173Q286.85 148.056 286.82 147.94Q286.79 147.824 286.754 147.709Q286.718 147.595 286.677 147.483Q286.636 147.37 286.589 147.26Q286.542 147.149 286.49 147.041Q286.438 146.934 286.381 146.828Q286.323 146.723 286.261 146.621Q286.198 146.518 286.131 146.419Q286.064 146.32 285.992 146.224Q285.92 146.128 285.843 146.036Q285.767 145.944 285.686 145.856Q285.604 145.768 285.519 145.683Q285.434 145.599 285.345 145.519Q285.256 145.439 285.163 145.364Q285.069 145.288 284.973 145.217Q284.876 145.146 284.776 145.08Q284.676 145.014 284.573 144.953Q284.47 144.892 284.364 144.835Q284.258 144.779 284.15 144.729Q284.041 144.678 283.931 144.632Q283.82 144.587 283.707 144.547Q283.594 144.507 283.479 144.472Q283.364 144.438 283.248 144.409Q283.132 144.38 283.014 144.357Q282.896 144.334 282.778 144.316Q282.659 144.299 282.54 144.287Q282.421 144.276 282.301 144.27Q282.181 144.264 282.061 144.264Q281.942 144.264 281.822 144.27Q281.702 144.276 281.583 144.288Q281.464 144.3 281.345 144.317Q281.227 144.335 281.109 144.358Z"/>
</svg>
